# xmcd
#
# Track frame offsets: 
#        150
#        12478
#        22970
#        34073
#        46306
#        62840
#        79067
#        99795
#        116229
#        135592
#        159949
#        181164
#
# Disc length: 2630 seconds
#
# Revision: 2
# Processed by: cddbd v1.5.2PL0 Copyright (c) Steve Scherf et al.
# Submitted via: ExactAudioCopyFreeDBPlugin 1.0
#
DISCID=8d0a440c
DTITLE=Professor Longhair - Mardi Gras In New Orleans
DYEAR=1981
DGENRE=Blues
TTITLE0=She Aint' Got No Hair
TTITLE1=Mardi Gras In New Orleans
TTITLE2=Professor Longhair's Boogie
TTITLE3=Bye Bye Bye
TTITLE4=Big Chief
TTITLE5=Tipitina
TTITLE6=Doin' It
TTITLE7=Her Mind Is Gone
TTITLE8=How Long Has That Train Been Gone?
TTITLE9=Doin The Mess Around
TTITLE10=Bald Head
TTITLE11=Big Chief (Version 2)
EXTD=
EXTT0=
EXTT1=
EXTT2=
EXTT3=
EXTT4=
EXTT5=
EXTT6=
EXTT7=
EXTT8=
EXTT9=
EXTT10=
EXTT11=
PLAYORDER=
